{"title":"Marmaduke CAM XViD - IMAGiNE","uid":5642923,"size":1043293698,"categoryP":"video","categoryS":"movies","magnet":"?xt=urn:btih:7d43185c765fa59da248d17c8f3596f187caf9b0&amp;dn=Marmaduke+CAM+XViD+-+IMAGiNE&amp;tr=udp%3A%2F%2Ftracker.openbittorrent.com%3A80&amp;tr=udp%3A%2F%2Fopen.demonii.com%3A1337&amp;tr=udp%3A%2F%2Ftracker.coppersurfer.tk%3A6969&amp;tr=udp%3A%2F%2Fexodus.desync.com%3A6969","seeders":0,"leechers":0,"uploader":"hiest","files":73,"time":1277184922,"description":"\nA suburban family moves to a new neighborhood with their large yet lovable Great Dane, who has a tendency to wreak havoc in his own oblivious way.\n\n\n \nVideo\n\nID : 0\nFormat : MPEG-4 Visual\nFormat profile : Advanced Simple@L5\nFormat settings, BVOP : Yes\nFormat settings, QPel : No\nFormat settings, GMC : No warppoints\nFormat settings, Matrix : Default (MPEG)\nMuxing mode : Packed bitstream\nCodec ID : XVID\nCodec ID/Hint : XviD\nDuration : 1h 22mn\nBit rate : 1 516 Kbps\nWidth : 640 pixels\nHeight : 288 pixels\nDisplay aspect ratio : 2.222\nFrame rate : 23.976 fps\nResolution : 24 bits\nColorimetry : 4:2:0\nScan type : Progressive\nBits/(Pixel*Frame) : 0.343\nStream size : 899 MiB (92%)\nWriting library : XviD 1.2.1 (UTC 2008-12-04)\n\n\n\nAudio\n\nID : 1\nFormat : MPEG Audio\nFormat version : Version 1\nFormat profile : Layer 3\nCodec ID : 55\nCodec ID/Hint : MP3\nDuration : 1h 22mn\nBit rate mode : Constant\nBit rate : 128 Kbps\nChannel(s) : 2 channels\nSampling rate : 44.1 KHz\nResolution : 16 bits\nStream size : 75.9 MiB (8%)\nAlignment : Split accross interleaves\nInterleave, duration : 42 ms (1.00 video frame)\nInterleave, preload duration : 500 ms","torrent":{"xt":"urn:btih:7d43185c765fa59da248d17c8f3596f187caf9b0","amp;dn":"Marmaduke+CAM+XViD+-+IMAGiNE","amp;tr":["udp%3A%2F%2Ftracker.openbittorrent.com%3A80","udp%3A%2F%2Fopen.demonii.com%3A1337","udp%3A%2F%2Ftracker.coppersurfer.tk%3A6969","udp%3A%2F%2Fexodus.desync.com%3A6969"],"infoHash":"7d43185c765fa59da248d17c8f3596f187caf9b0","infoHashBuffer":{"type":"Buffer","data":[125,67,24,92,118,95,165,157,162,72,209,124,143,53,150,241,135,202,249,176]},"announce":[],"urlList":[]}}